<svg xmlns="http://www.w3.org/2000/svg" xmlns:xlink="http://www.w3.org/1999/xlink" viewBox="0 0 136.26 233.5"><defs><style>.cls-1,.cls-3,.cls-4,.cls-5{fill:none;}.cls-2{isolation:isolate;}.cls-3,.cls-4,.cls-5{stroke:#9fd9da;stroke-miterlimit:10;stroke-width:3px;}.cls-4{opacity:0.6;}.cls-5{opacity:0.2;}.cls-6{fill:#8e8e8d;}.cls-7{clip-path:url(#clip-path);}.cls-8{fill:#5d5d5d;}.cls-9{fill:url(#radial-gradient);}.cls-10{fill:url(#linear-gradient);}.cls-11{clip-path:url(#clip-path-2);}.cls-12{fill:#b7b7b8;}.cls-13{fill:url(#linear-gradient-2);}.cls-14{clip-path:url(#clip-path-3);}.cls-15{fill:url(#linear-gradient-3);}.cls-16{fill:url(#linear-gradient-4);}.cls-17{mix-blend-mode:overlay;fill:url(#radial-gradient-2);}.cls-18{fill:url(#linear-gradient-5);}.cls-19{fill:url(#linear-gradient-6);}.cls-20{fill:url(#linear-gradient-7);}.cls-21{fill:url(#linear-gradient-8);}.cls-22{fill:url(#linear-gradient-9);}.cls-23{fill:url(#linear-gradient-10);}.cls-24{fill:url(#linear-gradient-11);}.cls-25{fill:url(#linear-gradient-12);}.cls-26{fill:url(#linear-gradient-13);}.cls-27{fill:url(#linear-gradient-14);}.cls-28{fill:url(#linear-gradient-15);}.cls-29{fill:url(#linear-gradient-16);}.cls-30{fill:url(#linear-gradient-17);}.cls-31{fill:url(#linear-gradient-18);}.cls-32{fill:url(#linear-gradient-19);}.cls-33{fill:url(#linear-gradient-20);}.cls-34{fill:url(#linear-gradient-21);}.cls-35{fill:url(#linear-gradient-22);}.cls-36{fill:url(#linear-gradient-23);}.cls-37{fill:url(#linear-gradient-24);}.cls-38{fill:url(#linear-gradient-25);}.cls-39{fill:url(#linear-gradient-26);}.cls-40{fill:url(#linear-gradient-27);}.cls-41{fill:url(#linear-gradient-28);}.cls-42{fill:url(#linear-gradient-29);}.cls-43{fill:url(#linear-gradient-30);}.cls-44{fill:url(#linear-gradient-31);}.cls-45{fill:url(#linear-gradient-32);}.cls-46{fill:url(#linear-gradient-33);}.cls-47{fill:url(#linear-gradient-34);}.cls-48{fill:url(#linear-gradient-35);}.cls-49{fill:url(#radial-gradient-3);}.cls-50{fill:url(#radial-gradient-4);}.cls-51{fill:url(#radial-gradient-5);}.cls-52{fill:url(#radial-gradient-6);}.cls-53{fill:url(#radial-gradient-7);}.cls-54{fill:url(#radial-gradient-8);}.cls-55{fill:url(#radial-gradient-9);}.cls-56{fill:url(#radial-gradient-10);}.cls-57{mix-blend-mode:soft-light;fill:url(#radial-gradient-11);}.cls-58{opacity:0.5;mix-blend-mode:screen;fill:url(#linear-gradient-36);}</style><clipPath id="clip-path"><path class="cls-1" d="M86.49,171.82a18.74,18.74,0,0,1-8.84,11,7.71,7.71,0,0,0,3.55-5.24C84.08,176,85.85,174,86.49,171.82Z"/></clipPath><radialGradient id="radial-gradient" cx="60.7" cy="178.8" r="29.91" gradientTransform="translate(8.54 14.12) scale(0.88)" gradientUnits="userSpaceOnUse"><stop offset="0" stop-color="#15c2e9"/><stop offset="1" stop-color="#6f4d9f"/></radialGradient><linearGradient id="linear-gradient" x1="32.08" y1="160.88" x2="104.79" y2="160.88" gradientUnits="userSpaceOnUse"><stop offset="0" stop-color="#fff"/><stop offset="1" stop-color="#dcdbdb"/></linearGradient><clipPath id="clip-path-2"><path class="cls-1" d="M97.81,155.66c0-4.28-2.74-8.57-8.3-11.89-11.3-6.75-29.87-6.94-41.49-.42-5.91,3.32-8.88,7.72-8.89,12.14v-3.92c0-4.43,3-8.84,8.89-12.15,11.62-6.52,30.2-6.33,41.49.42,5.56,3.32,8.32,7.61,8.3,11.89C97.82,152.91,97.81,154.48,97.81,155.66Z"/></clipPath><linearGradient id="linear-gradient-2" x1="32.09" y1="146.43" x2="104.98" y2="146.43" xlink:href="#linear-gradient"/><clipPath id="clip-path-3"><path class="cls-1" d="M43.74,149.73a26.62,26.62,0,0,1-8.51-7.79,17.35,17.35,0,0,1-3-9.78c0,5.3,3.4,10.62,10.29,14.73,14,8.37,37,8.6,51.4.52a3.05,3.05,0,0,1-1.29,2.84,36.52,36.52,0,0,1-4.5,2.14,47.74,47.74,0,0,1-7.19,2.22,57,57,0,0,1-12.84,1.33,55.62,55.62,0,0,1-12.69-1.56A42.19,42.19,0,0,1,43.74,149.73Z"/></clipPath><linearGradient id="linear-gradient-3" x1="52.32" y1="69.64" x2="67.17" y2="143.86" gradientUnits="userSpaceOnUse"><stop offset="0" stop-color="#95d3c1"/><stop offset="0.61" stop-color="#69c4d9"/><stop offset="1" stop-color="#4bb9ea"/></linearGradient><linearGradient id="linear-gradient-4" x1="86.01" y1="69.66" x2="74.18" y2="143.38" xlink:href="#linear-gradient-3"/><radialGradient id="radial-gradient-2" cx="65.03" cy="120" r="31.19" gradientTransform="translate(8.54 14.12) scale(0.88)" gradientUnits="userSpaceOnUse"><stop offset="0" stop-color="#95d3c1"/><stop offset="0.52" stop-color="#72afcd"/><stop offset="0.79" stop-color="#5e9bd3"/><stop offset="1" stop-color="#4bb9ea"/></radialGradient><linearGradient id="linear-gradient-5" x1="32.04" y1="132.08" x2="104.89" y2="132.08" xlink:href="#linear-gradient"/><linearGradient id="linear-gradient-6" x1="22.19" y1="53.62" x2="25.99" y2="53.62" gradientUnits="userSpaceOnUse"><stop offset="0" stop-color="#4f77bb"/><stop offset="1" stop-color="#6f4d9f"/></linearGradient><linearGradient id="linear-gradient-7" x1="43.11" y1="15.76" x2="47.74" y2="15.76" xlink:href="#linear-gradient-6"/><linearGradient id="linear-gradient-8" x1="28.89" y1="36.95" x2="95.78" y2="36.95" xlink:href="#linear-gradient-6"/><linearGradient id="linear-gradient-9" x1="35.17" y1="22.18" x2="41.59" y2="22.18" xlink:href="#linear-gradient-6"/><linearGradient id="linear-gradient-10" x1="36.85" y1="54.05" x2="21.91" y2="57.33" xlink:href="#linear-gradient-6"/><linearGradient id="linear-gradient-11" x1="22.08" y1="38.41" x2="34.07" y2="38.41" xlink:href="#linear-gradient-6"/><linearGradient id="linear-gradient-12" x1="27.25" y1="48.61" x2="32.04" y2="48.61" xlink:href="#linear-gradient-6"/><linearGradient id="linear-gradient-13" x1="105.39" y1="46.63" x2="117" y2="46.63" xlink:href="#linear-gradient-6"/><linearGradient id="linear-gradient-14" x1="95.2" y1="24.88" x2="105.84" y2="24.88" xlink:href="#linear-gradient-6"/><linearGradient id="linear-gradient-15" x1="75.97" y1="11.94" x2="79.83" y2="11.94" xlink:href="#linear-gradient-6"/><linearGradient id="linear-gradient-16" x1="38.56" y1="56.9" x2="82.11" y2="56.9" xlink:href="#linear-gradient-6"/><linearGradient id="linear-gradient-17" x1="73.52" y1="55.35" x2="82.36" y2="55.35" xlink:href="#linear-gradient-6"/><linearGradient id="linear-gradient-18" x1="47.88" y1="58.44" x2="52.4" y2="58.44" xlink:href="#linear-gradient-6"/><linearGradient id="linear-gradient-19" x1="50.9" y1="71.59" x2="65.12" y2="71.59" xlink:href="#linear-gradient-6"/><linearGradient id="linear-gradient-20" x1="49.87" y1="68.93" x2="54.63" y2="68.93" xlink:href="#linear-gradient-6"/><linearGradient id="linear-gradient-21" x1="98.83" y1="36.31" x2="112.4" y2="36.31" xlink:href="#linear-gradient-6"/><linearGradient id="linear-gradient-22" x1="46.66" y1="27.15" x2="55.58" y2="27.15" xlink:href="#linear-gradient-6"/><linearGradient id="linear-gradient-23" x1="36.92" y1="38.97" x2="114.22" y2="38.97" xlink:href="#linear-gradient-6"/><linearGradient id="linear-gradient-24" x1="72.55" y1="30.39" x2="85.8" y2="30.39" xlink:href="#linear-gradient-6"/><linearGradient id="linear-gradient-25" x1="77" y1="49.13" x2="83.94" y2="49.13" xlink:href="#linear-gradient-6"/><linearGradient id="linear-gradient-26" x1="81.9" y1="69.7" x2="94.98" y2="69.7" xlink:href="#linear-gradient-6"/><linearGradient id="linear-gradient-27" x1="94.26" y1="60.73" x2="104.98" y2="60.73" xlink:href="#linear-gradient-6"/><linearGradient id="linear-gradient-28" x1="89.04" y1="42.27" x2="102.2" y2="42.27" xlink:href="#linear-gradient-6"/><linearGradient id="linear-gradient-29" x1="85.02" y1="17.16" x2="92.4" y2="17.16" xlink:href="#linear-gradient-6"/><linearGradient id="linear-gradient-30" x1="54.38" y1="21.02" x2="71.98" y2="21.02" xlink:href="#linear-gradient-6"/><linearGradient id="linear-gradient-31" x1="64.85" y1="37.44" x2="77.6" y2="37.44" xlink:href="#linear-gradient-6"/><linearGradient id="linear-gradient-32" x1="49.48" y1="35" x2="61.63" y2="35" xlink:href="#linear-gradient-6"/><linearGradient id="linear-gradient-33" x1="41.38" y1="39.26" x2="52.26" y2="39.26" xlink:href="#linear-gradient-6"/><linearGradient id="linear-gradient-34" x1="53.52" y1="52.76" x2="63.05" y2="52.76" xlink:href="#linear-gradient-6"/><linearGradient id="linear-gradient-35" x1="35.92" y1="60.53" x2="45.28" y2="60.53" xlink:href="#linear-gradient-6"/><radialGradient id="radial-gradient-3" cx="39.8" cy="15.43" r="84.42" gradientTransform="translate(8.54 14.12) scale(0.88)" gradientUnits="userSpaceOnUse"><stop offset="0" stop-color="#95d3c1"/><stop offset="0.2" stop-color="#8fd1c5"/><stop offset="0.49" stop-color="#7ccacf"/><stop offset="0.82" stop-color="#5fc0df"/><stop offset="1" stop-color="#4bb9ea"/></radialGradient><radialGradient id="radial-gradient-4" cx="39.8" cy="15.43" r="84.42" xlink:href="#radial-gradient-3"/><radialGradient id="radial-gradient-5" cx="39.8" cy="15.43" r="84.42" xlink:href="#radial-gradient-3"/><radialGradient id="radial-gradient-6" cx="39.8" cy="15.43" r="84.42" xlink:href="#radial-gradient-3"/><radialGradient id="radial-gradient-7" cx="39.8" cy="15.43" r="84.42" xlink:href="#radial-gradient-3"/><radialGradient id="radial-gradient-8" cx="39.8" cy="15.43" r="84.42" xlink:href="#radial-gradient-3"/><radialGradient id="radial-gradient-9" cx="39.8" cy="15.43" r="84.42" xlink:href="#radial-gradient-3"/><radialGradient id="radial-gradient-10" cx="39.8" cy="15.43" r="84.42" xlink:href="#radial-gradient-3"/><radialGradient id="radial-gradient-11" cx="44.88" cy="22.68" r="122.01" gradientTransform="translate(8.54 14.12) scale(0.88)" gradientUnits="userSpaceOnUse"><stop offset="0" stop-color="#95d3c1"/><stop offset="0.19" stop-color="#8fcdc3"/><stop offset="0.46" stop-color="#7dbac9"/><stop offset="0.77" stop-color="#609dd2"/><stop offset="0.79" stop-color="#5e9bd3"/><stop offset="1" stop-color="#4bb9ea"/></radialGradient><linearGradient id="linear-gradient-36" x1="69.52" y1="124.41" x2="69.52" y2="11.69" gradientUnits="userSpaceOnUse"><stop offset="0" stop-color="#010101"/><stop offset="0.45" stop-color="#215869"/><stop offset="1" stop-color="#4ac8ef"/></linearGradient></defs><title>lightbulb</title><g class="cls-2"><g id="Layer_2" data-name="Layer 2"><g id="Layer_1-2" data-name="Layer 1"><path class="cls-3" d="M94.87,170.93c-14.86-8.58-38.89-8.58-53.66,0s-14.69,22.5.17,31.09,38.9,8.58,53.67,0S109.74,179.51,94.87,170.93Z"/><path class="cls-4" d="M105,165.61C84.5,153,51.39,153.05,31,165.61s-20.24,32.93.25,45.5,53.59,12.57,73.94,0S125.47,178.17,105,165.61Z"/><path class="cls-5" d="M115.09,158.47c-26.11-16.82-68.3-16.82-94.23,0s-25.79,44.09.31,60.91,68.29,16.83,94.23,0S141.2,175.29,115.09,158.47Z"/><path class="cls-6" d="M38.11,136c-.85-5.11.82-15.05,3.79-18.15s10.33-7,16.28-7.94,23.19-2.07,35.4,6.13,6.55,20.51,4.24,22.08S95.18,124.6,69.51,123.8,38.11,136,38.11,136Z"/><g class="cls-2"><g class="cls-7"><g class="cls-2"><path class="cls-8" d="M86.49,171.82a18.76,18.76,0,0,1-8.84,11,7.71,7.71,0,0,0,3.55-5.24c2.88-1.61,4.65-3.65,5.29-5.78"/></g></g></g><ellipse class="cls-9" cx="68.77" cy="176.24" rx="17.36" ry="16.23"/><path class="cls-10" d="M103.49,154.19a23.75,23.75,0,0,0-1.68-3.13c-4.6-7.47-18.94-15.61-38.42-13.88-39.67,3.39-41.86,39.71-5.31,46.45C78.85,188.82,111.71,176.63,103.49,154.19Z"/><g class="cls-2"><g class="cls-11"><g class="cls-2"><path class="cls-12" d="M97.81,155.66v-3.93c0-4.28-2.74-8.57-8.3-11.89-11.29-6.75-29.87-6.94-41.49-.42-5.91,3.31-8.88,7.72-8.89,12.15v3.92c0-4.42,3-8.82,8.89-12.14,11.62-6.52,30.19-6.33,41.49.42,5.56,3.32,8.31,7.61,8.3,11.89"/></g></g></g><path class="cls-6" d="M90.1,143.44c-11.61-6.94-30.71-7.13-42.65-.43s-12.22,17.76-.6,24.7,30.7,7.13,42.64.43S101.71,150.38,90.1,143.44Z"/><path class="cls-13" d="M101.68,136.46c-4.17-6.38-14-10.82-15.23-10.82a48.75,48.75,0,0,0-7.2-2h-.08C46,117.31,22.3,138.91,36.1,157.52a27.64,27.64,0,0,0,7.59,6.53C74,180.94,117.31,161.05,101.68,136.46Z"/><path class="cls-6" d="M90.14,114.14c-11.68-6.82-30.66-7-42.65-.42-15,8.3-8.64,22.22-9.08,26.4-.5,4.74,2.31,9.59,8.47,13.27,11.61,6.94,30.71,7.14,42.65.44,6.38-3.58,9.43-8.41,9.12-13.18C98.38,136.48,107.94,124.54,90.14,114.14Z"/><g class="cls-2"><g class="cls-14"><g class="cls-2"><path class="cls-8" d="M43.74,149.73c-7.58-4.66-11.47-10.57-11.56-17.57,0,5.3,3.4,10.62,10.29,14.73,14,8.37,37,8.6,51.4.52a3.05,3.05,0,0,1-1.29,2.84c-19,9.92-39.65,5.13-48.84-.52"/></g></g></g><path class="cls-15" d="M64.29,121.26v23.08c1.25.12,2.51.2,3.77.23V121.32c0-1.47.78-36.28-20.92-58.24a1.88,1.88,0,1,0-2.68,2.65C65,86.52,64.3,120.87,64.29,121.26Z"/><path class="cls-16" d="M70.84,144.56c1.27,0,2.53-.11,3.78-.23V121.26c0-.39-.72-34.74,19.83-55.53a1.89,1.89,0,0,0-2.69-2.65c-21.7,22-21,56.77-20.92,58.24Z"/><path class="cls-17" d="M61.36,147.89V122.81a8.09,8.09,0,0,1,16.18,0v25.08Z"/><path class="cls-18" d="M101.9,122.42h0a17.15,17.15,0,0,0-2-2.62A24.62,24.62,0,0,0,96.94,117c-7.26-5.72-14.39-6.73-15.23-7.15a57.27,57.27,0,0,0-24.88-.38c-16.24,3.28-22.39,12.15-24,17.76h0c-8.26,27.92,49.27,40.13,69,14.76C105.67,136.42,106.13,129.16,101.9,122.42ZM90.31,139.68c-12,6.71-31,6.52-42.65-.42s-11.34-18,.61-24.71,31-6.51,42.64.44S102.25,133,90.31,139.68Z"/><path class="cls-19" d="M22.84,52.93a1.7,1.7,0,0,0-.62,1.68c.11.68,1,.62,1.83.32s2.49-1.68,1.76-2.45S23.68,52.21,22.84,52.93Z"/><path class="cls-20" d="M43.11,16.45c.63-1.46.78-2,2.12-3a1.49,1.49,0,0,1,2.49.72c.21.77-1,3.65-2.63,4.17S43.11,16.45,43.11,16.45Z"/><path class="cls-21" d="M28.89,60.89s.74,3.54,2.07,4.4,1.86,1.19,3.68.26L95.37,34.68s.87-2,.07-6.22S84.53,7.32,67,7.79c-10.8.3-20.63,7.49-27.65,18.72-.37.59-4.35-3.89-6.21-2.67-4.37,2.85,1.18,8.78,3.75,7C29.85,44.51,28.89,60.89,28.89,60.89Z"/><path class="cls-22" d="M35.92,25.6C35,23.85,34.78,21,36,19.8a2.92,2.92,0,0,1,4.48,0c1.39,1.62,1.65,4-.31,4.54S35.92,25.6,35.92,25.6Z"/><path class="cls-23" d="M29.31,58.82c2.24-.52,3.28.89,3.65-1.73s-.85-4.23-3.47-4.8-4.39,3.26-2.28,4.89Z"/><path class="cls-24" d="M26.67,34.6c.2-2-.31-2.68.56-4.3a5.57,5.57,0,0,1,6.6-1.91c-1.29.85-.21,2.15,0,3.64.36,3.4.72,8.24-1.09,12.3-2.59,5.84-11.07,6.12-10.59.34C22.83,41.68,26.67,34.6,26.67,34.6Z"/><path class="cls-25" d="M28,50c-.83-1.25-1-2-.23-3s1.62-.71,2.43-.09,2.56,2.56,1.54,3.45C30,51.83,28,50,28,50Z"/><path class="cls-26" d="M116.34,45.37c.4-1,.79-1.31.61-2.26s-1.57-1.55-3-1.27-8-.11-8.52,2.41,5.38,7.08,7.4,7.24,3.37-3.31,3.37-3.31Z"/><path class="cls-27" d="M103.59,22.24c-.14-1,.25-1.26-.54-2s-2.32-.5-3.83,1.13-4.94,5.19-3.78,7.06,9.1,1.35,9.1,1.35l1.3-3.84Z"/><path class="cls-28" d="M76.05,10.8a2.13,2.13,0,0,1,2-1.15c1,0,1.9.47,1.8,2.54s-2.88,2.67-3.47,1.28A4.68,4.68,0,0,1,76.05,10.8Z"/><path class="cls-29" d="M41,63.11c-2,2.54-3.15,4.54-1.94,6.5,1.05,1.71,5.65,1.72,8.69,0,.31-.17,2.55,3,3.16,2.91,3.62-.39,8.13,2.11,12.35,2.76,1.34.2,1.47-.82,1.87-1.36.53-.74,6.55-1.14,6.79-.95,2,1.56,7.1,2.34,8.5,1.69,5-2.33-2.54-9.65-4.43-11.71s.94-11.7,1.3-17.14S72.4,34.31,67.4,42.31s-15.27,13.85-19.69,15S41,63.11,41,63.11Z"/><path class="cls-30" d="M77.46,53.46a8.19,8.19,0,0,0-3.78,2.13c-.49.7.2,1.53,1.75,1.67s7.24.05,6.92-2S79.53,53.32,77.46,53.46Z"/><path class="cls-31" d="M52.4,59.21c-.49.82-1,1.52-1.81,1.66-1.38.24-3-1.65-2.66-3.14s2.72-2.43,3.58-1.13A5.32,5.32,0,0,1,52.4,59.21Z"/><path class="cls-32" d="M50.9,72.56c3.62-.39,8.13,2.11,12.35,2.76,1.34.2,1.47-.82,1.87-1.36l0-6.13-7.94.51Z"/><path class="cls-33" d="M51.46,66.6c.87-.4.4-.48,1.29-.67s1.79-.1,1.88,1.46S53.45,71.72,51.82,72s-2.41-1.51-1.68-3S51.46,66.6,51.46,66.6Z"/><path class="cls-34" d="M109.63,41c2.71-4.09,3.32-8.78,2.31-10.54s-4-2.54-7.57,1-7.83,8-4.09,10.6S107.73,43.87,109.63,41Z"/><path class="cls-35" d="M51.1,32.39c-3.78-1.11-5.54-6.06-3.71-8.9s5.61-1.86,7.23.29S56.26,33.9,51.1,32.39Z"/><path class="cls-36" d="M114.22,56.08c-.46,2.36-.43,4-2.34,5.66a5.9,5.9,0,0,1-8.16-1.22c-2-2.88-8.26,3.11-12.22,6-7.93,5.75-12.73-4.28-10.72-9.17S77.65,27,70.68,38.4,59.09,53.65,53.44,55.7c-14.17,5.14-16.92-1.47-16.48-5,.36-2.93,2.43-4.37,6.67-4.3S56.91,31.7,59.43,25.68,62,13.87,62.64,12.37s.21-1.2,2.78-2.37,5.07,1.55,7.26,4.17c1.68,2,15.72,0,19.49,6s6.3,12.06,3.39,18.59,7.85,9.29,11.81,9.12S114.22,56.08,114.22,56.08Z"/><path class="cls-37" d="M82.41,24.94c1.13-.16,1.82-.54,2.77.11s.79,1.56-.4,2.63S82,31,82.14,32.88s-2.9,5.34-4.36,1.45-4.13-2.13-4.66-4.08-1.54-3.63,1.75-3.39S82.41,24.94,82.41,24.94Z"/><path class="cls-38" d="M83.46,48.76c.46-1.27.52-.78.46-1.61s-1.53-1.51-3-.62-3.25,1.38-3.81,3,1.6,3.48,3.45,2.2A12.1,12.1,0,0,0,83.46,48.76Z"/><path class="cls-39" d="M89.88,72.24a17,17,0,0,0,3.4-.34c1.59-.32,2.2-1.68,1.25-2.71s-7.2-2-9-3-4.6,0-3.36,2.19-.51,4.13.13,4.88,3,.41,4-.08A17.75,17.75,0,0,1,89.88,72.24Z"/><path class="cls-40" d="M95.38,58.33c-.07-1.12-.09-1.65.87-2.37s1.87,0,2.47.94,3.87,3.11,5,3.62,2.33,3.95-.41,3.71a10.69,10.69,0,0,0-6.06,1.26c-.73.52-3.94.69-2.72-2.07A9.79,9.79,0,0,0,95.38,58.33Z"/><path class="cls-41" d="M95.24,47.68c-2.39.29-5.39-.45-6-1.66s0-1.94,1-2.08S95,40.86,95.1,39.1s2.4-3.58,3.07-1.08a9.67,9.67,0,0,0,3.5,5.15c1.26,1,.15,3.17-2.19,3A6.43,6.43,0,0,0,95.24,47.68Z"/><path class="cls-42" d="M91.27,13.13c.86.28,1.29.91,1.07,2.21a33.72,33.72,0,0,0-.82,5c0,1.2-2,1.95-2.83.93-.65-.79-3.67-6-3.67-6l.42-2.61,3,.37A11.15,11.15,0,0,1,91.27,13.13Z"/><path class="cls-43" d="M64,23c1.5-.07,2.41.21,3.47-.38s1.47-1.76-.13-3.21-9.85-4.07-9.85-4.07l-3.13,4.23,1.94,7.23Z"/><path class="cls-44" d="M65,37.74c0-1.35-.32-2.21.09-3.19s1.06-1.14,2.29-.91,7.09-.69,9,1.42,1.79,6.86-1.08,5.06a8.72,8.72,0,0,0-5.11-1.54s-2.17,4.2-4.47,2.21C64.72,40,65,37.74,65,37.74Z"/><path class="cls-45" d="M57.2,35.91c1.33-.8,1.54-.5,2.09-1.6s-.83-2.18-2.46-1.93-7.35,1.9-7.35,1.9l.84,3.39Z"/><path class="cls-46" d="M41.94,37.27a5.11,5.11,0,0,1-.51-2.74c.2-1,1-1.53,2.66-1.2s8.07,6,8.17,7.8-4.14,2.78-4.78,2-3.29,3.74-4.18,1.62S41.94,37.27,41.94,37.27Z"/><path class="cls-47" d="M57.05,50.91a4,4,0,0,1,.44-2.28,1.91,1.91,0,0,1,3.1.07c1.07,1.28,3.26,6.06,2.16,7.71s-6.52,1.16-6.52,1.16S52.17,56,54,54A28.35,28.35,0,0,1,57.05,50.91Z"/><path class="cls-48" d="M36.58,61.48c-.44-.23-.62-.29-.66-.85s.64-1,1.72-1.45,3-3.48,5-3.46,2.52.83,2.69,2.41-3.6,4.35-4.54,5.46-3,2.69-3.34,1A28.38,28.38,0,0,0,36.58,61.48Z"/><path class="cls-49" d="M58.47,65.66l-.88,0a6.39,6.39,0,0,0-5.38,4.5c-.34,1.29-2.13,1.26-1.76-.55.24-1.14.85-3,2.3-3.64-5,.84-9,3.17-8.63,5.74a72.54,72.54,0,0,0,19.13,3.65c-1-.14-.93-1.44-1.17-2.22a6.91,6.91,0,0,0-4-1.83c-1.08,0-1-1.23,0-1.31.52,0,2.88.3,3.67,1.26a8.06,8.06,0,0,1,.15-1.71.93.93,0,1,1,1.83.26c-.12,2.53,0,5.38,2.72,5.69,2.66.06,5.33,0,8-.17C74.67,69.82,65.5,66.19,58.47,65.66Z"/><path class="cls-50" d="M114.91,45.24a5.5,5.5,0,0,0-.82,3.74.87.87,0,0,1-1.7.33,6.62,6.62,0,0,1,.25-3.47,9.63,9.63,0,0,1-5.19-.35c-1.18-.42-.87-1.9.67-1.57,2.85.61,5,.59,7-1.6.73-.8,1.27-1.42,1-2.29a39.09,39.09,0,0,0-4.25-9.57c1.26,3.33-1.56,7.51-4.61,9.89A5.56,5.56,0,0,1,104,41.72a2.87,2.87,0,0,1-2.12-.79c-1-1-.83-2.75.89-4.25,3.8-3.33,7.4-9.5,2.63-14.29-.76-.74-1.55-1.44-2.36-2.12.5.86-.71,2.57-.85,2.91a6.93,6.93,0,0,0,2,4.28c.93.81-.17,1.84-1.16,1.18a6.94,6.94,0,0,1-2.15-3.16,10.74,10.74,0,0,1-2.19,2.23c-1.37,1-2.46-.33-1.64-1,3.38-2.63,5.41-7,4.39-7.77A46.82,46.82,0,0,0,93,13.9c-1.55-.53-3.59,7.47-2,9.51,3.35,4.15,3.4,9.75-.07,15A10.73,10.73,0,0,0,89,43.75c0,1.36,2.23,1.71,4.16.74,2.55-1.28,2.94-3.08,2.81-5.53a.86.86,0,1,1,1.69-.29A6.68,6.68,0,0,1,97.09,43a8.09,8.09,0,0,1,3.54.39c1,.47.5,1.71-.63,1.34a8.25,8.25,0,0,0-4.29.09,6.56,6.56,0,0,1-2.06,1.25c-2.22.86-3.54.8-4.37-.06A4.51,4.51,0,0,0,90,47.28c1.52,2,4.73,2.87,8.89,2.4.35-.06.71-.11,1.07-.14,5.25-.8,10.73.35,12.82,5.13a6.36,6.36,0,0,1-.86,7.07c4.05-3.93,6-8.24,5.8-12.46h0a39,39,0,0,0-.73-6.17C117,44.06,116.18,44.61,114.91,45.24Z"/><path class="cls-51" d="M88.91,18.32A7.27,7.27,0,0,0,86.2,15c-1.1-.62-.24-1.83.88-1.36a5.67,5.67,0,0,1,2.24,1.9c.42-1.19,1-2.52,2-2.41a49.51,49.51,0,0,0-9.7-2.92c-1.18,0-2.51.59-2.52,2.1s-2,1.53-2.3-.15c-.21-1.38.19-2.23,1.27-2.51a50.91,50.91,0,0,0-7.13-.35c-2.8.09-2.71,7.52,9.93,8.89a15.91,15.91,0,0,1,7.87,3C88.27,20.63,88.61,19.17,88.91,18.32Z"/><path class="cls-52" d="M62.29,21.82a8.58,8.58,0,0,0-4.7,2c-.88.88-2.05-.07-1.33-1a8,8,0,0,1,3.46-2.08,10.71,10.71,0,0,1-2.52-1.87c-1.16-1.18.32-2.24,1-1.53a11.59,11.59,0,0,0,5.53,3.13c2,.57,3.94,1.11,6.15.29a16,16,0,0,1,1.6-.91C65,17.12,63.31,12,65.42,10A28.34,28.34,0,0,0,53,17c-2.21,3.09-.65,7.53.77,10.68.84,1.87-.16,3.27-2.55,3.09s-5-4.21-3.8-7.31A54.19,54.19,0,0,0,43,30.94c-.65,2.35.23,4,2,6.05a11.34,11.34,0,0,0,5.22,3.53c1,.36.42,2-1.22,1.42a11.65,11.65,0,0,1-3.34-1.81A5.61,5.61,0,0,1,45,43c-.55.79-1.74.31-1.28-.58a5.53,5.53,0,0,0,.08-4c-1.09-1.12-2.57-2.45-2.38-3.86a70.92,70.92,0,0,0-2.77,8.23c-.84,3.58,2.45,7.65,7.9,6.73,5.82-1,8.27-4.66,11.31-11.9.45-1.07.92-2.17,1.42-3.28-1.52,1.77-4.68,2.08-7.32,2-1.76-.07-1.55-1.75-.48-1.73a12.64,12.64,0,0,0,6.39-1.43,12.87,12.87,0,0,0,3-2,28.72,28.72,0,0,1,6.63-8.52C65.72,23.37,62.66,21.94,62.29,21.82Z"/><path class="cls-53" d="M39.86,58.54c.5-.91,1.24-2.56,2.73-2.82-2.84-.26-5.38-1.66-5.63-5a83.9,83.9,0,0,0-1,8.6C36.54,60.33,38.51,59.22,39.86,58.54Z"/><path class="cls-54" d="M106.32,56.94c-.86-2.07-2.85-3-5.61-2.54-2.61.42-3,1.92-3,2.63.28,2.81,2.08,3.91,4.83,4.81,1.48.48.8,1.86-.44,1.63a9,9,0,0,1-4-1.82,7.14,7.14,0,0,1-1.47,3.16c-.85.83-2.13,0-1.37-1a6.78,6.78,0,0,0,1.13-4.23c-.43-.81-1-2.87-.16-3.67a11.93,11.93,0,0,0-5.17,7.69,2.7,2.7,0,0,1-2.61,2.11,3.05,3.05,0,0,1-.52,0A2.47,2.47,0,0,1,85.68,63a13.93,13.93,0,0,1,.95-3.12,20.72,20.72,0,0,1-3.54.57c-1.26.06-1.46-1.32.21-1.43a10.56,10.56,0,0,0,4.35-1.14,18.24,18.24,0,0,1,3.18-4,11.09,11.09,0,0,1-5.4-3.75,9.44,9.44,0,0,1-1.51-2.94c0,1-2.15,3.28-5.41,4-1.22.25-1.5-1.17-.41-1.34a7.71,7.71,0,0,0,3.42-1.82,4.84,4.84,0,0,0,2-3.76,14.86,14.86,0,0,1,2.73-8.24c1.94-2.94,2.33-5.83,1.2-8.2-.91-1.21-2.69-1.51-4.58-.18-2.49,1.74-2.58,3.71-2,6.3.33,1.39-1.32,1.63-1.75.56a7.15,7.15,0,0,1-.24-4.69,9.15,9.15,0,0,1-3.86.12c-1.17-.35-.84-1.75.43-1.53A8.84,8.84,0,0,0,80,27.59c1.25-1.94,4.16-2.95,5.21-2.54L85.12,25a10.64,10.64,0,0,0-12.83.26A22.24,22.24,0,0,0,66.46,32a2.12,2.12,0,0,0,.78,2.81c3.24,1.73,7.12-2,9.31,3.41.53,1.31-1,1.58-1.42.62-2.08-4.22-4-1.35-7.09-2.32a4.88,4.88,0,0,1,.08,3.14c-.38,1.09-1.71.87-1.55-.18.31-1.92-1.95-3.24-1.5-4.88-.76,1.56-1.43,3.15-2.09,4.73a43.53,43.53,0,0,1-2.75,5.51,10.86,10.86,0,0,0-.9,5.35,9.8,9.8,0,0,0,2.24,5.54c.62.78-.83,1.87-1.87.6a9.61,9.61,0,0,1-1.54-2.7,6.49,6.49,0,0,1-2.3,2.19c-.94.4-1.64-.59-.73-1.12a6.22,6.22,0,0,0,2.44-3.27,3.68,3.68,0,0,1-.08-2.75A20.14,20.14,0,0,1,46.62,55.4c-.29.07-.59.13-.89.18a5.15,5.15,0,0,0-3.28,2.29,13.16,13.16,0,0,0-2.62,5.65c-.17.95-2,.83-1.79-.74a8.92,8.92,0,0,1,.75-2.38c-.77.53-2.38,1.19-2.87.23-.08,1.95-.08,4,0,6.13,0,0,.09,2.06,3.14,2.85-.87-2.4,1.87-4.64,3.51-5.87a14.84,14.84,0,0,1,5.81-2.51c.94-.54,1.2-1.7,1-3.41-.14-1,1.52-.84,1.84.63.17.82.15,2.12-.57,2.42a50.92,50.92,0,0,1,8.1-.13c4.22-.14,7-.85,8.34-2.11s1.28-3.59,1.17-6.2c0-.44,0-.88,0-1.33a11.35,11.35,0,0,0-3.31-2.21c-.95-.44-.21-2,1.36-1.3a10.14,10.14,0,0,1,2,1.16,9.13,9.13,0,0,1,2-5.37,2.94,2.94,0,0,1,3.83-.49,2.29,2.29,0,0,1,.49,3.45c-1.1,1.3-1,3.51-.91,5.84a11.48,11.48,0,0,1,0,3.41c1.47-1.48,4.67-1.47,6.32-1.18,2,.35,1.15,1.67-.29,1.49-2.66-.35-6,.53-6.69,3A8.31,8.31,0,0,1,71,62a10,10,0,0,1-2.13,1.55,15.54,15.54,0,0,1,9.19,4.32c1.92,1.9,4.59,5.93,2.35,6.87a79.57,79.57,0,0,0,12.87-2.8,8.8,8.8,0,0,1-4.46-.66,7.2,7.2,0,0,0-4,1.59c-.74.72-1.7-.08-1.09-.84a6.77,6.77,0,0,1,2.79-1.66,11,11,0,0,1-2.68-1.85c-1.19-1.15.25-2.24,1-1.55a12,12,0,0,0,5.65,3.21A15.58,15.58,0,0,0,100.7,69C106.56,65.8,107.61,60.06,106.32,56.94Z"/><path class="cls-55" d="M26,41.59a7.55,7.55,0,0,0,1.89-6c-.1-2.63-1.23-3.73-.62-5.34A39.3,39.3,0,0,0,22.1,44.67C22.79,43.16,25.05,42.68,26,41.59Z"/><path class="cls-56" d="M66.65,7.81a50.93,50.93,0,0,0-17.34,3.77c-2.18.89-3.08,3.06-3.54,5.37-.19.95-1.91,1.07-1.8-.51a4.87,4.87,0,0,1,1.26-3,46.83,46.83,0,0,0-5,3c-.7.69-.19,2.22.28,3.3,1.39,3.13-1.8,6-3.93,3.61A3.11,3.11,0,0,1,36,19.8a44.61,44.61,0,0,0-5.61,5.9c3.64,8.17,2.72,14.1-.55,18.81-.21.31-.44.6-.67.89A2.77,2.77,0,0,0,30.91,49c1,.36.24,1.89-1.37,1.29A2.69,2.69,0,0,1,27.76,47a18.85,18.85,0,0,1-6.05,3.84c0,.25,0,.5,0,.76h0a13.4,13.4,0,0,0,.5,3c.08-.86,1.28-1.54,1.56-1.72,1-.66,2.08.38,1.13,1.18-.63.52-2.29,1.74-1.79,2.84A21.9,21.9,0,0,0,31,65.29c.6.4,1.88,1.17,1.84.41A70.29,70.29,0,0,1,33,57.09c-.65,1.36-2.58.71-3.42.31-3.55-1.71-3-5.39-.38-4.62,2,.61,4.2-.25,4.49-2.33a72,72,0,0,1,6.42-21.34c-1.63-.61-3.22-.22-5.08.58-1.3.55-1.85-.71-.89-1.28a8.75,8.75,0,0,1,1.27-.61,6.37,6.37,0,0,1-2.59-2.57.78.78,0,1,1,1.43-.61,7,7,0,0,0,3.46,2.63,7.11,7.11,0,0,1,3.16.36C47.06,15.84,56.38,8.23,67,7.79Z"/><path class="cls-57" d="M125.71,56.19A56.19,56.19,0,1,0,24.16,89.28C32,100,39.71,111.77,39.68,125.1l0,3.43c0,19.19,52.13,22.17,59,2.51a46.77,46.77,0,0,0,.19-5.69c0-13.22,7.62-24.87,15.59-35.43A55.68,55.68,0,0,0,125.71,56.19Z"/><path class="cls-58" d="M125.71,56.19A56.19,56.19,0,1,0,24.16,89.28C32,100,39.71,111.77,39.68,125.1l0,3.43a10.69,10.69,0,0,0,3,7.33l0-10.75c0-14.4-8.3-27-16.11-37.62a52.54,52.54,0,0,1-10.24-31.3,53.17,53.17,0,0,1,106.34,0A52.53,52.53,0,0,1,112,88.1c-8.42,11.14-16.2,23.36-16.21,37.25,0,0,0,7.08,0,10.44A13.81,13.81,0,0,0,98.62,131a46.77,46.77,0,0,0,.19-5.69c0-13.22,7.62-24.87,15.59-35.43A55.68,55.68,0,0,0,125.71,56.19Z"/></g></g></g></svg>